<svg width="32" height="31" viewBox="0 0 32 31" fill="none" xmlns="http://www.w3.org/2000/svg">
<path d="M0.695312 0V31H31.4885V0H0.695312ZM27.5662 6.02682L27.4286 6.51173C27.3942 6.58101 27.3598 6.65028 27.3254 6.71955L14.0103 21.9251L22.3365 24.1073C22.4742 24.1419 22.5774 24.2112 22.6462 24.3497C22.715 24.4536 22.715 24.5922 22.6806 24.7307L21.4764 29.5799C21.442 29.7184 21.3732 29.8223 21.2355 29.8916C21.1323 29.9609 20.9947 29.9609 20.8571 29.9263L3.20693 25.2849C2.96609 25.2503 2.79406 24.9732 2.82847 24.7307V24.6615L2.96609 24.1765C3.0005 24.1073 3.0349 24.038 3.06931 23.9687L16.3843 8.76313L8.05814 6.58101C7.92052 6.54637 7.81731 6.47709 7.74849 6.33855C7.67968 6.23464 7.67968 6.09609 7.71409 5.95754L8.9871 1.07374C9.02151 0.935195 9.09032 0.831285 9.22794 0.762011C9.33116 0.692737 9.50319 0.692737 9.6064 0.727374L27.2222 5.40335C27.3598 5.43799 27.463 5.50726 27.5318 5.64581C27.6006 5.74972 27.635 5.9229 27.5662 6.02682Z" fill="#1B1B1D"/>
</svg>
